<svg width="25" height="19" viewBox="0 0 25 19" fill="none" xmlns="http://www.w3.org/2000/svg">
<path fill-rule="evenodd" clip-rule="evenodd" d="M6.12338 6.90088C5.74002 7.31543 5.3254 7.70375 4.88762 8.05585H24.0391V10.0558H4.93606C5.35601 10.3975 5.75419 10.7724 6.12338 11.1716C7.79958 12.9842 9.03906 15.4661 9.03906 18.0725H7.03906C7.03906 16.0872 6.07873 14.069 4.65502 12.5295C3.21571 10.9732 1.46261 10.0725 0.0390625 10.0725V10.0558V10V8.07251V8.05585V8C1.46261 8 3.21571 7.09936 4.65502 5.54297C6.07873 4.00346 7.03906 1.98536 7.03906 0H9.03906C9.03906 2.60645 7.79958 5.08834 6.12338 6.90088Z" fill="#070038"/>
</svg>
