<svg width="113" height="120" viewBox="0 0 113 120" fill="none" xmlns="http://www.w3.org/2000/svg">
<path d="M104.353 27.1998L57.2754 0.574427L10.1981 27.1998V80.4329L57.2754 107.058L104.353 80.4329V27.1998Z" stroke="#070038"/>
<line y1="-0.5" x2="53.8716" y2="-0.5" transform="matrix(0.868933 0.494929 -0.510418 0.859926 10.0664 27.4907)" stroke="#070038"/>
<line y1="-0.5" x2="53.8716" y2="-0.5" transform="matrix(-0.868934 -0.494929 0.510418 -0.859926 104.27 79.9235)" stroke="#070038"/>
<line y1="-0.5" x2="53.9057" y2="-0.5" transform="matrix(-0.875131 0.483887 -0.499258 -0.866454 104.053 27.1766)" stroke="#070038"/>
<line y1="-0.5" x2="53.9057" y2="-0.5" transform="matrix(0.875131 -0.483887 0.499258 0.866453 10.2832 80.2377)" stroke="#070038"/>
<line x1="57.1406" y1="1.03845" x2="57.1406" y2="106.978" stroke="#070038"/>
<ellipse cx="15.3966" cy="55.904" rx="12.6779" ry="12.4192" fill="#070038"/>
<path d="M25.1568 50.3837C25.8969 51.6394 26.3772 53.0255 26.5704 54.463C26.7636 55.9005 26.6659 57.3612 26.2828 58.7617C25.8997 60.1621 25.2388 61.475 24.3378 62.6253C23.4368 63.7755 22.3133 64.7407 21.0315 65.4657C19.7497 66.1906 18.3347 66.6611 16.8672 66.8504C15.3998 67.0396 13.9087 66.9439 12.479 66.5686C11.0494 66.1934 9.70916 65.5459 8.53492 64.6633C7.36068 63.7807 6.37541 62.6801 5.63537 61.4245L15.3961 55.9041L25.1568 50.3837Z" fill="#4E7CF4"/>
<ellipse cx="33.9787" cy="62.114" rx="12.6779" ry="12.4192" fill="#070038"/>
<path d="M43.7389 56.5937C44.4789 57.8493 44.9593 59.2355 45.1524 60.673C45.3456 62.1104 45.2479 63.5711 44.8648 64.9716C44.4818 66.3721 43.8208 67.685 42.9198 68.8352C42.0188 69.9855 40.8953 70.9507 39.6135 71.6756C38.3317 72.4006 36.9167 72.8711 35.4493 73.0603C33.9818 73.2496 32.4907 73.1538 31.0611 72.7786C29.6314 72.4033 28.2912 71.7559 27.1169 70.8733C25.9427 69.9906 24.9574 68.8901 24.2174 67.6344L33.9781 62.1141L43.7389 56.5937Z" fill="#4E7CF4"/>
<path fill-rule="evenodd" clip-rule="evenodd" d="M19.1141 85.3191L57.0928 106.799L94.2158 85.8031L106.321 92.5864L57.0933 119.15L8.39453 91.0539L19.1141 85.3191Z" fill="#070038"/>
</svg>
