<svg width="25" height="19" viewBox="0 0 25 19" fill="none" xmlns="http://www.w3.org/2000/svg">
<path fill-rule="evenodd" clip-rule="evenodd" d="M17.9547 6.90088C18.3381 7.31543 18.7527 7.70375 19.1905 8.05585H0.0390625V10.0558H19.1421C18.7221 10.3975 18.3239 10.7724 17.9547 11.1716C16.2785 12.9842 15.0391 15.4661 15.0391 18.0725H17.0391C17.0391 16.0872 17.9994 14.069 19.4231 12.5295C20.8624 10.9732 22.6155 10.0725 24.0391 10.0725V10.0558V10V8.07251V8.05585V8C22.6155 8 20.8624 7.09936 19.4231 5.54297C17.9994 4.00346 17.0391 1.98536 17.0391 0H15.0391C15.0391 2.60645 16.2785 5.08834 17.9547 6.90088Z" fill="#070038"/>
</svg>
