<svg width="30" height="19" viewBox="0 0 30 19" fill="none" xmlns="http://www.w3.org/2000/svg">
	<path d="M9.03536 0.632568C9.85854 0.632568 10.6184 0.69589 11.3149 0.885855C12.0115 1.0125 12.5814 1.26578 13.0879 1.58239C13.5945 1.899 13.9744 2.34225 14.2277 2.91214C14.481 3.48204 14.6077 4.17858 14.6077 4.93843C14.6077 5.82494 14.4177 6.5848 13.9744 7.15469C13.5945 7.72458 12.9613 8.23116 12.2014 8.61109C13.2779 8.92769 14.1011 9.49759 14.6077 10.2574C15.1142 11.0173 15.4308 11.9671 15.4308 13.0436C15.4308 13.9301 15.2409 14.69 14.9243 15.3232C14.6077 15.9564 14.1011 16.5263 13.5312 16.9062C12.9613 17.2861 12.2648 17.6027 11.5049 17.7927C10.745 17.9827 9.98518 18.1093 9.22532 18.1093H0.740234V0.632568H9.03536ZM8.52879 7.72458C9.22532 7.72458 9.79522 7.53462 10.2385 7.21801C10.6817 6.9014 10.8717 6.33151 10.8717 5.63497C10.8717 5.25504 10.8084 4.87511 10.6817 4.62183C10.5551 4.36854 10.3651 4.17858 10.1118 3.98861C9.85854 3.86197 9.60525 3.73532 9.28864 3.672C8.97204 3.60868 8.65543 3.60868 8.2755 3.60868H4.60285V7.72458H8.52879ZM8.71875 15.1965C9.09868 15.1965 9.47861 15.1332 9.79522 15.0699C10.1118 15.0066 10.4284 14.8799 10.6817 14.69C10.935 14.5 11.125 14.31 11.3149 13.9934C11.4416 13.6768 11.5682 13.2969 11.5682 12.8536C11.5682 11.9671 11.3149 11.3339 10.8084 10.8907C10.3018 10.5107 9.60525 10.3208 8.78207 10.3208H4.60285V15.1965H8.71875ZM20.9398 15.1332C21.4464 15.6398 22.2062 15.8931 23.2194 15.8931C23.9159 15.8931 24.5491 15.7031 25.0557 15.3865C25.5623 15.0066 25.8789 14.6266 26.0055 14.2467H29.1083C28.6017 15.7664 27.8419 16.8429 26.8287 17.5394C25.8156 18.1726 24.6125 18.5526 23.1561 18.5526C22.1429 18.5526 21.2564 18.3626 20.4332 18.046C19.6101 17.7294 18.9768 17.2861 18.4069 16.6529C17.8371 16.083 17.3938 15.3865 17.1405 14.5633C16.8239 13.7401 16.6973 12.8536 16.6973 11.8405C16.6973 10.8907 16.8239 10.0042 17.1405 9.18098C17.4571 8.3578 17.9004 7.66126 18.4703 7.02805C19.0402 6.45815 19.7367 5.95158 20.4966 5.63497C21.3197 5.31836 22.1429 5.1284 23.1561 5.1284C24.2325 5.1284 25.1824 5.31836 26.0055 5.76162C26.8287 6.20487 27.4619 6.71144 27.9685 7.4713C28.4751 8.16783 28.855 8.99102 29.1083 9.87752C29.2349 10.764 29.2983 11.6505 29.2349 12.6637H20.0533C20.0533 13.6768 20.4332 14.6266 20.9398 15.1332ZM24.9291 8.48444C24.4858 8.04119 23.7893 7.78791 22.9661 7.78791C22.3962 7.78791 21.953 7.91455 21.573 8.10451C21.1931 8.29448 20.9398 8.54776 20.6865 8.80105C20.4332 9.05434 20.3066 9.37094 20.2433 9.68755C20.18 10.0042 20.1166 10.2574 20.1166 10.5107H25.8156C25.6889 9.56091 25.3723 8.92769 24.9291 8.48444ZM19.3568 1.83568H26.4488V3.54536H19.3568V1.83568Z" fill="#4878F4" />
</svg>
