<svg width="316" height="235" viewBox="0 0 316 235" fill="none" xmlns="http://www.w3.org/2000/svg">
<rect width="316" height="235" fill="white"/>
<path d="M35.0748 52.4599C35.0748 53.1026 35.2261 53.5469 35.5285 53.7926C35.831 54.0383 36.313 54.1612 36.9746 54.1612C37.3716 54.1612 37.8063 54.1329 38.2789 54.0761V57.3086C37.3905 57.4031 36.6533 57.4504 36.0673 57.4504C34.555 57.4504 33.4208 57.1101 32.6647 56.4296C31.9274 55.7302 31.5588 54.4826 31.5588 52.6868V46.2786H28.8935V43.1312H31.5588V39.6435L35.0748 38.4526V43.1312H38.2222V46.2786H35.0748V52.4599ZM52.2051 43.1312H55.7211V57.3086H52.2051V55.9192C51.5435 56.4863 50.8158 56.9305 50.0218 57.2519C49.2468 57.5543 48.4245 57.7056 47.5549 57.7056C46.1183 57.7056 44.8612 57.3842 43.7838 56.7415C42.7063 56.0988 41.8745 55.2103 41.2885 54.0761C40.7214 52.9419 40.4379 51.666 40.4379 50.2482C40.4379 48.8305 40.7214 47.5545 41.2885 46.4203C41.8745 45.2861 42.7063 44.3977 43.7838 43.755C44.8612 43.0934 46.1183 42.7626 47.5549 42.7626C48.4245 42.7626 49.2468 42.9232 50.0218 43.2446C50.8158 43.547 51.5435 43.9818 52.2051 44.5489V43.1312ZM48.0086 54.3313C48.7837 54.3313 49.4831 54.1612 50.1069 53.8209C50.7496 53.4618 51.2505 52.9703 51.6097 52.3465C51.9878 51.7227 52.1768 51.0138 52.1768 50.2199C52.1768 49.029 51.7704 48.0555 50.9575 47.2993C50.1636 46.5432 49.1806 46.1651 48.0086 46.1651C46.8177 46.1651 45.8348 46.5527 45.0597 47.3277C44.3036 48.0838 43.9255 49.0573 43.9255 50.2482C43.9255 51.4391 44.3036 52.4221 45.0597 53.1971C45.8348 53.9533 46.8177 54.3313 48.0086 54.3313ZM70.3245 43.1312H73.8405V62.9796H70.3245V55.9476C69.6629 56.4958 68.9352 56.9305 68.1412 57.2519C67.3662 57.5543 66.5534 57.7056 65.7027 57.7056C64.2661 57.7056 63.009 57.3842 61.9315 56.7415C60.854 56.0799 60.0223 55.182 59.4363 54.0478C58.8692 52.9136 58.5856 51.6376 58.5856 50.2199C58.5856 48.8021 58.8692 47.5262 59.4363 46.392C60.0223 45.2578 60.854 44.3693 61.9315 43.7266C63.009 43.0839 64.2661 42.7626 65.7027 42.7626C66.5534 42.7626 67.3756 42.9138 68.1696 43.2162C68.9635 43.5187 69.6818 43.9535 70.3245 44.5206V43.1312ZM66.1564 54.303C67.3284 54.303 68.3114 53.9249 69.1053 53.1688C69.9181 52.4127 70.3245 51.4391 70.3245 50.2482C70.3245 49.4543 70.1355 48.7454 69.7575 48.1216C69.3983 47.4978 68.8974 47.0158 68.2546 46.6755C67.6308 46.3164 66.9314 46.1368 66.1564 46.1368C64.9655 46.1368 63.9825 46.5243 63.2075 47.2993C62.4514 48.0555 62.0733 49.029 62.0733 50.2199C62.0733 51.4108 62.4514 52.3938 63.2075 53.1688C63.9825 53.9249 64.9655 54.303 66.1564 54.303ZM91.5504 51.7227L94.1874 43.1312H97.8735L93.28 57.3086H89.7924L87.127 48.8872L84.4616 57.3086H81.0307L76.5506 43.1312H80.2084L82.7604 51.666L85.2556 43.1312H88.9984L91.5504 51.7227ZM110.553 43.1312H114.069V57.3086H110.553V55.9192C109.891 56.4863 109.163 56.9305 108.369 57.2519C107.594 57.5543 106.772 57.7056 105.903 57.7056C104.466 57.7056 103.209 57.3842 102.131 56.7415C101.054 56.0988 100.222 55.2103 99.6361 54.0761C99.069 52.9419 98.7855 51.666 98.7855 50.2482C98.7855 48.8305 99.069 47.5545 99.6361 46.4203C100.222 45.2861 101.054 44.3977 102.131 43.755C103.209 43.0934 104.466 42.7626 105.903 42.7626C106.772 42.7626 107.594 42.9232 108.369 43.2446C109.163 43.547 109.891 43.9818 110.553 44.5489V43.1312ZM106.356 54.3313C107.131 54.3313 107.831 54.1612 108.454 53.8209C109.097 53.4618 109.598 52.9703 109.957 52.3465C110.335 51.7227 110.524 51.0138 110.524 50.2199C110.524 49.029 110.118 48.0555 109.305 47.2993C108.511 46.5432 107.528 46.1651 106.356 46.1651C105.165 46.1651 104.182 46.5527 103.407 47.3277C102.651 48.0838 102.273 49.0573 102.273 50.2482C102.273 51.4391 102.651 52.4221 103.407 53.1971C104.182 53.9533 105.165 54.3313 106.356 54.3313ZM130.899 57.3086H127.411V48.9156C127.411 47.857 127.109 47.1009 126.504 46.6472C125.918 46.1746 125.218 45.9383 124.406 45.9383C123.763 45.9383 123.177 46.1368 122.648 46.5338C122.137 46.9307 121.806 47.564 121.655 48.4335V57.3086H118.139V37.4602H121.655V44.3221C122.128 43.8684 122.667 43.5092 123.271 43.2446C123.895 42.9799 124.557 42.8476 125.256 42.8476C126.088 42.8476 126.929 43.0272 127.78 43.3864C128.631 43.7266 129.358 44.341 129.963 45.2294C130.587 46.1179 130.899 47.3182 130.899 48.8305V57.3086Z" fill="#070038"/>
<rect width="42.5323" height="42.5323" transform="translate(243.379 28.355)" fill="#070038"/>
<path d="M255.799 39.6384H263.596C265.827 39.6384 267.736 40.0543 269.324 40.886C270.931 41.6989 272.15 42.8614 272.982 44.3737C273.813 45.8859 274.229 47.6628 274.229 49.7044C274.229 51.6136 273.813 53.3055 272.982 54.7799C272.15 56.2544 270.94 57.4075 269.352 58.2392C267.783 59.0709 265.912 59.4868 263.738 59.4868H255.799V39.6384ZM260.335 55.3754H263.596C265.638 55.3754 267.159 54.865 268.161 53.8442C269.182 52.8045 269.692 51.4246 269.692 49.7044C269.692 47.8141 269.173 46.3491 268.133 45.3094C267.093 44.2697 265.534 43.7499 263.454 43.7499H260.335V55.3754Z" fill="white"/>
<circle cx="16.9962" cy="14.6332" r="4.00011" fill="#FF6565"/>
<circle cx="31.8993" cy="14.6332" r="4.00011" fill="#FFD465"/>
<circle cx="46.8024" cy="14.6332" r="4.00011" fill="#7BFF65"/>
<path d="M28.3545 129.482H44.7647V165.689H28.3545V129.482Z" fill="#070038"/>
<path d="M89.8926 134.746H106.303V165.689H89.8926V134.746Z" fill="#070038"/>
<path d="M151.431 134.746H167.841V165.689H151.431V134.746Z" fill="#070038"/>
<path d="M48.8672 142.987H65.2774V165.689H48.8672V142.987Z" fill="#070038"/>
<path d="M110.405 129.482H126.816V165.689H110.405V129.482Z" fill="#070038"/>
<path d="M171.944 127.307H188.355V165.689H171.944V127.307Z" fill="#070038"/>
<path d="M69.3799 113.123H85.7901V165.689H69.3799V113.123Z" fill="#070038"/>
<path d="M130.918 142.987H147.328V165.689H130.918V142.987Z" fill="#070038"/>
<path d="M36.9482 141.529L56.9909 156.015L76.9716 145.263L98.1175 113.598L118.782 122.804L139.161 111.816L159.698 127.203L179.983 120.506" stroke="#B4C8FF"/>
<ellipse cx="36.5591" cy="141.539" rx="2.05128" ry="2.13233" fill="#B4C8FF"/>
<ellipse cx="57.0718" cy="155.377" rx="2.05128" ry="2.13233" fill="#B4C8FF"/>
<ellipse cx="77.5845" cy="144.563" rx="2.05128" ry="2.13233" fill="#B4C8FF"/>
<ellipse cx="98.0972" cy="113.954" rx="2.05128" ry="2.13233" fill="#B4C8FF"/>
<ellipse cx="118.611" cy="122.724" rx="2.05128" ry="2.13233" fill="#B4C8FF"/>
<ellipse cx="139.124" cy="111.822" rx="2.05128" ry="2.13233" fill="#B4C8FF"/>
<ellipse cx="159.637" cy="126.988" rx="2.05128" ry="2.13233" fill="#B4C8FF"/>
<ellipse cx="180.15" cy="120.37" rx="2.05128" ry="2.13233" fill="#B4C8FF"/>
<path d="M285.911 129.689C285.911 138.261 282.853 146.552 277.286 153.07C271.719 159.588 264.009 163.905 255.543 165.246C247.077 166.587 238.41 164.863 231.101 160.384C223.793 155.906 218.322 148.966 215.673 140.814C213.024 132.662 213.371 123.832 216.651 115.913C219.932 107.994 225.93 101.505 233.567 97.6132C241.205 93.7217 249.98 92.6831 258.315 94.6841C266.65 96.6852 273.997 101.595 279.036 108.529L263.891 119.533C261.473 116.204 257.946 113.847 253.945 112.887C249.944 111.926 245.732 112.425 242.066 114.293C238.4 116.161 235.521 119.275 233.946 123.077C232.372 126.878 232.205 131.116 233.477 135.029C234.748 138.942 237.374 142.273 240.882 144.423C244.39 146.573 248.551 147.4 252.614 146.757C256.678 146.113 260.379 144.041 263.051 140.912C265.723 137.783 267.191 133.804 267.191 129.689H285.911Z" fill="#4E7CF4"/>
<path d="M285.911 129.689C285.911 135.849 284.331 141.906 281.321 147.28C278.311 152.654 273.973 157.166 268.721 160.385C263.469 163.603 257.479 165.42 251.324 165.662C245.17 165.904 239.056 164.562 233.567 161.766C228.079 158.969 223.4 154.811 219.978 149.69C216.556 144.568 214.505 138.655 214.022 132.514C213.539 126.373 214.639 120.211 217.218 114.618C219.797 109.024 223.768 104.185 228.751 100.565L239.754 115.71C237.362 117.447 235.456 119.77 234.218 122.455C232.981 125.14 232.452 128.098 232.684 131.045C232.916 133.993 233.901 136.831 235.543 139.29C237.186 141.748 239.432 143.744 242.066 145.086C244.701 146.428 247.635 147.072 250.59 146.956C253.544 146.84 256.419 145.968 258.94 144.423C261.461 142.878 263.543 140.712 264.988 138.133C266.433 135.553 267.191 132.646 267.191 129.689H285.911Z" fill="#5F40FF"/>
<path d="M285.911 129.689C285.911 136.81 283.8 143.77 279.844 149.69C275.888 155.61 270.266 160.224 263.688 162.949C257.11 165.674 249.871 166.387 242.888 164.998C235.905 163.609 229.49 160.18 224.455 155.145L237.695 141.906C240.111 144.322 243.189 145.968 246.541 146.634C249.892 147.301 253.366 146.959 256.523 145.651C259.68 144.344 262.378 142.129 264.276 139.288C266.175 136.447 267.188 133.106 267.188 129.689H285.911Z" fill="#FFB240"/>
<rect opacity="0.56" x="28.2598" y="179.411" width="160" height="12" fill="#6E6E6E"/>
<rect opacity="0.56" x="213.911" y="179.411" width="72" height="12" fill="#6E6E6E"/>
<rect opacity="0.56" x="28.2598" y="199.736" width="160" height="12" fill="#6E6E6E"/>
<rect opacity="0.56" x="213.911" y="199.736" width="72" height="12" fill="#6E6E6E"/>
</svg>
