<svg width="28" height="29" viewBox="0 0 28 29" fill="none" xmlns="http://www.w3.org/2000/svg">
	<path d="M14 0.713379C6.272 0.713379 0 6.98538 0 14.7134C0 22.4414 6.272 28.7134 14 28.7134C21.7 28.7134 28 22.4414 28 14.7134C28 6.98538 21.7 0.713379 14 0.713379ZM23.24 7.15338C24.92 9.19738 25.9 11.7734 25.956 14.6014C25.564 14.5174 21.616 13.7334 17.64 14.2094C17.556 14.0134 17.472 13.7894 17.388 13.5934C17.136 13.0054 16.884 12.4174 16.604 11.8574C20.972 10.0934 22.988 7.48938 23.24 7.15338ZM14 2.78538C17.024 2.78538 19.824 3.93338 21.924 5.78138C21.7 6.08938 19.908 8.49738 15.652 10.0934C13.692 6.48138 11.508 3.54138 11.2 3.09338C12.096 2.89738 13.02 2.78538 14 2.78538ZM8.904 3.90538C9.212 4.32538 11.34 7.29338 13.328 10.8214C7.728 12.3054 2.8 12.2774 2.268 12.2774C3.08 8.55338 5.572 5.47338 8.904 3.90538ZM2.044 14.7414C2.044 14.6294 2.044 14.4894 2.044 14.3774C2.548 14.4054 8.372 14.4614 14.336 12.6694C14.672 13.3414 15.008 14.0134 15.316 14.7134C15.176 14.7694 15.008 14.7974 14.84 14.8534C8.68 16.8414 5.404 22.2734 5.124 22.7214C3.192 20.5934 2.044 17.7934 2.044 14.7414ZM14 26.6694C11.228 26.6694 8.68 25.7174 6.664 24.1494C6.888 23.7014 9.296 19.0254 16.044 16.6734C16.072 16.6454 16.1 16.6454 16.128 16.6454C17.808 21.0134 18.508 24.6534 18.676 25.7174C17.248 26.3334 15.652 26.6694 14 26.6694ZM20.664 24.6254C20.552 23.8974 19.908 20.3974 18.34 16.1134C22.092 15.5254 25.368 16.5054 25.788 16.6174C25.256 19.9494 23.352 22.8334 20.664 24.6254Z" fill="white" />
</svg>
