<svg width="20" height="30" viewBox="0 0 20 30" fill="none" xmlns="http://www.w3.org/2000/svg">
	<path d="M9.99902 14.7135C9.99902 12.0625 12.1481 9.91333 14.7992 9.91333C17.4502 9.91333 19.5993 12.0625 19.5993 14.7135C19.5993 17.3645 17.4502 19.5136 14.7992 19.5136C12.1481 19.5136 9.99902 17.3645 9.99902 14.7135Z" fill="#1ABCFE" />
	<path d="M0.399414 24.3136C0.399414 21.6626 2.54851 19.5134 5.19956 19.5134H9.99971V24.3136C9.99971 26.9647 7.85063 29.1137 5.19956 29.1137C2.54851 29.1137 0.399414 26.9647 0.399414 24.3136Z" fill="#0ACF83" />
	<path d="M9.99902 0.312988V9.91326H14.7992C17.4502 9.91326 19.5993 7.76418 19.5993 5.11313C19.5993 2.46209 17.4502 0.312988 14.7992 0.312988H9.99902Z" fill="#FF7262" />
	<path d="M0.399414 5.11314C0.399414 7.76418 2.54851 9.91326 5.19956 9.91326H9.99971V0.312988H5.19956C2.54851 0.312988 0.399414 2.46209 0.399414 5.11314Z" fill="#F24E1E" />
	<path d="M0.399414 14.7135C0.399414 17.3645 2.54851 19.5136 5.19956 19.5136H9.99971V9.91333H5.19956C2.54851 9.91333 0.399414 12.0625 0.399414 14.7135Z" fill="#A259FF" />
</svg>
