<svg width="86" height="22" viewBox="0 0 86 22" fill="none" xmlns="http://www.w3.org/2000/svg">
	<path d="M5.92764 12.5282C5.92764 12.9762 6.04764 13.2882 6.28764 13.4642C6.54364 13.6402 6.92764 13.7282 7.43964 13.7282C7.75964 13.7282 8.11164 13.7042 8.49564 13.6562V16.8002C7.69564 16.8802 7.03164 16.9202 6.50364 16.9202C5.15964 16.9202 4.15164 16.6242 3.47964 16.0322C2.82364 15.4242 2.49564 14.3282 2.49564 12.7442V7.84824H0.431641V4.80025H2.49564V2.01624L5.92764 0.864244V4.80025H8.44764V7.84824H5.92764V12.5282Z" fill="white" />
	<path d="M19.6316 4.80025H23.0396V16.8002H19.6316V15.8882C19.1036 16.2882 18.5196 16.5922 17.8796 16.8002C17.2556 17.0242 16.6236 17.1362 15.9836 17.1362C14.7356 17.1362 13.6556 16.8642 12.7436 16.3202C11.8476 15.7762 11.1596 15.0322 10.6796 14.0882C10.1996 13.1282 9.95964 12.0402 9.95964 10.8242C9.95964 9.60825 10.1996 8.52024 10.6796 7.56024C11.1596 6.58424 11.8476 5.82424 12.7436 5.28024C13.6556 4.73625 14.7356 4.46425 15.9836 4.46425C16.6396 4.46425 17.2796 4.57625 17.9036 4.80025C18.5276 5.02424 19.1036 5.33624 19.6316 5.73624V4.80025ZM16.4396 13.8722C17.3356 13.8722 18.0876 13.5842 18.6956 13.0082C19.3036 12.4322 19.6076 11.6882 19.6076 10.7762C19.6076 9.89625 19.3036 9.17624 18.6956 8.61625C18.0876 8.05625 17.3356 7.77625 16.4396 7.77625C15.5436 7.77625 14.8076 8.05625 14.2316 8.61625C13.6556 9.17624 13.3676 9.91224 13.3676 10.8242C13.3676 11.7362 13.6556 12.4722 14.2316 13.0322C14.8076 13.5922 15.5436 13.8722 16.4396 13.8722Z" fill="white" />
	<path d="M34.6545 4.80025H38.0625V21.6002H34.6545V15.9122C34.1265 16.3122 33.5505 16.6162 32.9265 16.8242C32.3025 17.0482 31.6705 17.1602 31.0305 17.1602C29.7825 17.1602 28.7025 16.8882 27.7905 16.3442C26.8945 15.7842 26.2065 15.0242 25.7265 14.0642C25.2465 13.1042 25.0065 12.0162 25.0065 10.8002C25.0065 9.58425 25.2465 8.50424 25.7265 7.56024C26.2065 6.60024 26.8945 5.84824 27.7905 5.30424C28.7025 4.76024 29.7825 4.48825 31.0305 4.48825C31.6865 4.48825 32.3185 4.60024 32.9265 4.82424C33.5505 5.03224 34.1265 5.33624 34.6545 5.73624V4.80025ZM31.4865 13.8242C32.3985 13.8242 33.1505 13.5522 33.7425 13.0082C34.3505 12.4482 34.6545 11.7202 34.6545 10.8242C34.6545 9.92825 34.3505 9.19225 33.7425 8.61625C33.1345 8.04025 32.3825 7.75224 31.4865 7.75224C30.5905 7.75224 29.8545 8.03225 29.2785 8.59225C28.7025 9.15224 28.4145 9.88824 28.4145 10.8002C28.4145 11.6962 28.7025 12.4242 29.2785 12.9842C29.8545 13.5442 30.5905 13.8242 31.4865 13.8242Z" fill="white" />
	<path d="M52.7141 11.2562L54.6581 4.80025H58.2341L54.3461 16.8002H51.0101L49.0181 10.4642L47.0021 16.8002H43.6901L39.8501 4.80025H43.4501L45.3461 11.1842L47.1941 4.80025H50.8181L52.7141 11.2562Z" fill="white" />
	<path d="M68.1941 4.80025H71.6021V16.8002H68.1941V15.8882C67.6661 16.2882 67.0821 16.5922 66.4421 16.8002C65.8181 17.0242 65.1861 17.1362 64.5461 17.1362C63.2981 17.1362 62.2181 16.8642 61.3061 16.3202C60.4101 15.7762 59.7221 15.0322 59.2421 14.0882C58.7621 13.1282 58.5221 12.0402 58.5221 10.8242C58.5221 9.60825 58.7621 8.52024 59.2421 7.56024C59.7221 6.58424 60.4101 5.82424 61.3061 5.28024C62.2181 4.73625 63.2981 4.46425 64.5461 4.46425C65.2021 4.46425 65.8421 4.57625 66.4661 4.80025C67.0901 5.02424 67.6661 5.33624 68.1941 5.73624V4.80025ZM65.0021 13.8722C65.8981 13.8722 66.6501 13.5842 67.2581 13.0082C67.8661 12.4322 68.1701 11.6882 68.1701 10.7762C68.1701 9.89625 67.8661 9.17624 67.2581 8.61625C66.6501 8.05625 65.8981 7.77625 65.0021 7.77625C64.1061 7.77625 63.3701 8.05625 62.7941 8.61625C62.2181 9.17624 61.9301 9.91224 61.9301 10.8242C61.9301 11.7362 62.2181 12.4722 62.7941 13.0322C63.3701 13.5922 64.1061 13.8722 65.0021 13.8722Z" fill="white" />
	<path d="M85.5818 16.8002H82.1498V9.72025C82.1498 8.95225 81.9338 8.40025 81.5018 8.06425C81.0698 7.71225 80.5578 7.53625 79.9658 7.53625C79.4698 7.53625 79.0378 7.69625 78.6698 8.01624C78.3018 8.32025 78.0698 8.80025 77.9738 9.45624V16.8002H74.5418V0.000244141H77.9738V5.66424C78.8538 4.92824 79.8058 4.56024 80.8298 4.56024C81.5178 4.56024 82.2138 4.71224 82.9178 5.01624C83.6378 5.30424 84.2538 5.82424 84.7658 6.57624C85.2938 7.32824 85.5658 8.34424 85.5818 9.62424V16.8002Z" fill="white" />
</svg>
