<svg width="18" height="19" viewBox="0 0 18 19" fill="none" xmlns="http://www.w3.org/2000/svg">
	<path fill-rule="evenodd" clip-rule="evenodd" d="M12.0678 7.61412C12.2875 7.83379 12.2875 8.18994 12.0678 8.4096L8.50836 11.9691C8.28877 12.1888 7.93267 12.1888 7.71299 11.9692L5.93245 10.1895C5.71272 9.96989 5.71265 9.61371 5.93227 9.39404C6.15189 9.17428 6.50805 9.1742 6.72776 9.39388L8.11055 10.776L11.2724 7.61413C11.492 7.39445 11.8481 7.39445 12.0678 7.61412Z" fill="#070038" />
	<path fill-rule="evenodd" clip-rule="evenodd" d="M3.18249 3.9744C4.43331 2.72356 6.36743 2.2919 9.00003 2.29187C11.6326 2.29185 13.5667 2.72347 14.8176 3.97428C16.0684 5.2251 16.5001 7.15922 16.5001 9.7918C16.5001 12.4244 16.0685 14.3585 14.8177 15.6093C13.5669 16.8602 11.6328 17.2918 9.00019 17.2919C6.36759 17.2919 4.43346 16.8603 3.18261 15.6095C1.93176 14.3586 1.50011 12.4245 1.50008 9.79195C1.50005 7.15938 1.93166 5.22525 3.18249 3.9744ZM3.97799 4.76989C3.06077 5.68714 2.62505 7.22177 2.62508 9.79194C2.62511 12.3621 3.06086 13.8968 3.9781 14.8139C4.89533 15.7312 6.42997 16.1669 9.00018 16.1669C11.5704 16.1668 13.1049 15.7311 14.0222 14.8138C14.9394 13.8966 15.3751 12.362 15.3751 9.79181C15.3751 7.22163 14.9393 5.68701 14.0221 4.76978C13.1048 3.85257 11.5702 3.41685 9.00004 3.41687C6.42983 3.4169 4.89521 3.85265 3.97799 4.76989Z" fill="#070038" />
</svg>
