<svg width="24" height="19" viewBox="0 0 24 19" fill="none" xmlns="http://www.w3.org/2000/svg">
<path fill-rule="evenodd" clip-rule="evenodd" d="M6.08432 7.36475C5.70096 7.7793 5.28634 8.16761 4.84855 8.51971H24V10.5197H4.897C5.31694 10.8614 5.71512 11.2363 6.08432 11.6355C7.76052 13.448 9 15.9299 9 18.5364H7C7 16.551 6.03967 14.5329 4.61596 12.9934C3.17665 11.437 1.42355 10.5364 0 10.5364V10.5197V10.4639V8.53638V8.51971V8.46387C1.42355 8.46387 3.17665 7.56323 4.61596 6.00684C6.03967 4.46733 7 2.44923 7 0.463867H9C9 3.07031 7.76052 5.55221 6.08432 7.36475Z" fill="#070038"/>
</svg>
