<svg width="54" height="58" viewBox="0 0 54 58" fill="none" xmlns="http://www.w3.org/2000/svg">
<path d="M49.2668 13.634L27.4057 1.27011L5.54463 13.634V38.3442L27.4057 50.7081L49.2668 38.3442V13.634Z" stroke="#070038"/>
<line x1="5.76737" y1="13.5223" x2="27.4632" y2="25.7116" stroke="#070038"/>
<line y1="-0.5" x2="25.3194" y2="-0.5" transform="matrix(-0.868934 -0.494929 0.510418 -0.859926 49.4922 38.2593)" stroke="#070038"/>
<line y1="-0.5" x2="25.3354" y2="-0.5" transform="matrix(-0.875131 0.483887 -0.499258 -0.866454 49.3911 13.4685)" stroke="#070038"/>
<line y1="-0.5" x2="25.3354" y2="-0.5" transform="matrix(0.875131 -0.483887 0.499258 0.866453 5.31934 38.407)" stroke="#070038"/>
<line x1="27.6074" y1="1.18372" x2="27.6074" y2="50.9747" stroke="#070038"/>
<path d="M13.1808 26.9703C13.1808 29.9082 10.7467 32.3073 7.72222 32.3073C4.69778 32.3073 2.26367 29.9082 2.26367 26.9703C2.26367 24.0325 4.69778 21.6334 7.72222 21.6334C10.7467 21.6334 13.1808 24.0325 13.1808 26.9703Z" fill="#070038" stroke="#070038"/>
<path d="M12.3099 24.3757C12.6577 24.9659 12.8835 25.6173 12.9743 26.2929C13.0651 26.9686 13.0192 27.6551 12.8391 28.3133C12.6591 28.9715 12.3484 29.5886 11.925 30.1292C11.5015 30.6698 10.9735 31.1234 10.371 31.4641C9.76858 31.8049 9.10353 32.026 8.41384 32.115C7.72416 32.2039 7.02334 32.1589 6.35141 31.9825C5.67948 31.8062 5.04958 31.5019 4.4977 31.087C3.94581 30.6722 3.48274 30.155 3.13492 29.5648L7.72242 26.9703L12.3099 24.3757Z" fill="white"/>
<path d="M21.9146 29.8889C21.9146 32.8268 19.4805 35.2259 16.4561 35.2259C13.4317 35.2259 10.9976 32.8268 10.9976 29.8889C10.9976 26.9511 13.4317 24.552 16.4561 24.552C19.4805 24.552 21.9146 26.9511 21.9146 29.8889Z" fill="#070038" stroke="#070038"/>
<path d="M21.0433 27.2944C21.3911 27.8846 21.6169 28.536 21.7077 29.2117C21.7985 29.8873 21.7526 30.5738 21.5725 31.232C21.3925 31.8902 21.0818 32.5073 20.6584 33.0479C20.2349 33.5885 19.7069 34.0421 19.1044 34.3828C18.502 34.7236 17.8369 34.9447 17.1472 35.0337C16.4576 35.1226 15.7567 35.0776 15.0848 34.9012C14.4129 34.7249 13.783 34.4206 13.2311 34.0057C12.6792 33.5909 12.2161 33.0737 11.8683 32.4835L16.4558 29.889L21.0433 27.2944Z" fill="white"/>
<path fill-rule="evenodd" clip-rule="evenodd" d="M9.46966 40.7952L27.3195 50.8905L44.7672 41.0227L50.4566 44.2108L27.3198 56.6956L4.43164 43.4905L9.46966 40.7952Z" fill="#070038"/>
<path d="M9.46966 40.7952L9.71581 40.36L9.47636 40.2246L9.2338 40.3544L9.46966 40.7952ZM27.3195 50.8905L27.0734 51.3257L27.3195 51.465L27.5656 51.3257L27.3195 50.8905ZM44.7672 41.0227L45.0116 40.5865L44.7661 40.4489L44.5211 40.5874L44.7672 41.0227ZM50.4566 44.2108L50.694 44.6508L51.4941 44.219L50.701 43.7746L50.4566 44.2108ZM27.3198 56.6956L27.0699 57.1287L27.3117 57.2682L27.5572 57.1357L27.3198 56.6956ZM4.43164 43.4905L4.19578 43.0496L3.40252 43.474L4.18177 43.9236L4.43164 43.4905ZM9.22352 41.2304L27.0734 51.3257L27.5656 50.4553L9.71581 40.36L9.22352 41.2304ZM27.5656 51.3257L45.0134 41.4579L44.5211 40.5874L27.0734 50.4553L27.5656 51.3257ZM44.5228 41.4588L50.2121 44.6469L50.701 43.7746L45.0116 40.5865L44.5228 41.4588ZM50.2191 43.7707L27.0824 56.2556L27.5572 57.1357L50.694 44.6508L50.2191 43.7707ZM27.5697 56.2625L4.68151 43.0574L4.18177 43.9236L27.0699 57.1287L27.5697 56.2625ZM4.6675 43.9314L9.70552 41.2361L9.2338 40.3544L4.19578 43.0496L4.6675 43.9314Z" fill="#070038"/>
</svg>
