<svg width="20" height="19" viewBox="0 0 20 19" fill="none" xmlns="http://www.w3.org/2000/svg">
<path d="M18.7109 11.7188C18.7109 10.4263 17.6596 9.375 16.3672 9.375C15.0748 9.375 14.0234 10.4263 14.0234 11.7188C14.0234 13.0112 15.0748 14.0625 16.3672 14.0625C17.6596 14.0625 18.7109 13.0112 18.7109 11.7188ZM16.3672 13.2812C15.5057 13.2812 14.8047 12.5803 14.8047 11.7188C14.8047 10.8572 15.5057 10.1562 16.3672 10.1562C17.2287 10.1562 17.9297 10.8572 17.9297 11.7188C17.9297 12.5803 17.2287 13.2812 16.3672 13.2812Z" fill="#8B9EBA"/>
<path d="M16.3672 14.0625C15.3828 14.0625 14.4012 14.4711 13.7326 15.1337C12.8525 13.9771 11.4954 13.2812 10 13.2812C8.56796 13.2812 7.18033 13.9346 6.26755 15.1337C5.59875 14.4713 4.61731 14.0625 3.63281 14.0625C1.66367 14.0625 0 15.6725 0 17.5781V18.3594C0 18.5751 0.174866 18.75 0.390625 18.75H19.6094C19.8251 18.75 20 18.5751 20 18.3594V17.5781C20 15.6725 18.3363 14.0625 16.3672 14.0625ZM0.78125 17.5781C0.78125 16.0959 2.0871 14.8438 3.63281 14.8438C4.47861 14.8438 5.31738 15.2185 5.83664 15.8142C5.49332 16.4774 5.3125 17.2165 5.3125 17.9688H0.78125V17.5781ZM10 14.0625C12.1736 14.0625 13.9062 15.8261 13.9062 17.9688H6.09375C6.09375 15.7976 7.86179 14.0625 10 14.0625ZM19.2188 17.9688H14.6875C14.6875 17.2165 14.5067 16.4774 14.1634 15.8142C14.6826 15.2185 15.5214 14.8438 16.3672 14.8438C17.9129 14.8438 19.2188 16.0959 19.2188 17.5781V17.9688Z" fill="#8B9EBA"/>
<path d="M5.97656 11.7188C5.97656 10.4263 4.92523 9.375 3.63281 9.375C2.34039 9.375 1.28906 10.4263 1.28906 11.7188C1.28906 13.0112 2.34039 14.0625 3.63281 14.0625C4.92523 14.0625 5.97656 13.0112 5.97656 11.7188ZM3.63281 13.2812C2.7713 13.2812 2.07031 12.5803 2.07031 11.7188C2.07031 10.8572 2.7713 10.1562 3.63281 10.1562C4.49432 10.1562 5.19531 10.8572 5.19531 11.7188C5.19531 12.5803 4.49432 13.2812 3.63281 13.2812Z" fill="#8B9EBA"/>
<path d="M13.125 10.1562C13.125 8.43307 11.7232 7.03125 10 7.03125C8.27682 7.03125 6.875 8.43307 6.875 10.1562C6.875 11.8794 8.27682 13.2812 10 13.2812C11.7232 13.2812 13.125 11.8794 13.125 10.1562ZM10 12.5C8.70758 12.5 7.65625 11.4487 7.65625 10.1562C7.65625 8.86383 8.70758 7.8125 10 7.8125C11.2924 7.8125 12.3438 8.86383 12.3438 10.1562C12.3438 11.4487 11.2924 12.5 10 12.5Z" fill="#8B9EBA"/>
<path d="M13.0914 2.27188C13.0455 2.13043 12.9232 2.02744 12.776 2.00607L11.0911 1.76147L10.3367 0.219116C10.2713 0.0849914 10.1351 0 9.98592 0C9.83669 0 9.70058 0.0849915 9.63497 0.218964L8.88072 1.76147L7.19585 2.00592C7.0486 2.02728 6.92638 2.13043 6.88045 2.27188C6.83452 2.41333 6.87282 2.56851 6.97933 2.67227L8.19942 3.86139L7.91149 5.54062C7.88631 5.6871 7.94658 5.83527 8.06697 5.92255C8.1866 6.00952 8.3459 6.02188 8.47835 5.9523L9.98592 5.15961L11.4941 5.9523C11.6256 6.02158 11.7851 6.00998 11.9055 5.92255C12.0257 5.83511 12.086 5.6871 12.0608 5.54047L11.7726 3.86139L12.9925 2.67227C13.099 2.56851 13.1373 2.41333 13.0914 2.27188ZM11.08 3.44528C10.988 3.535 10.9458 3.6644 10.9677 3.79105L11.1567 4.89258L10.1677 4.37256C10.0538 4.31274 9.91786 4.31274 9.80403 4.37256L8.81526 4.89258L9.00417 3.79105C9.02584 3.66425 8.98372 3.535 8.89171 3.44528L8.09154 2.66541L9.19704 2.50488C9.32491 2.48642 9.43523 2.40585 9.49184 2.28989L9.98592 1.27975L10.4798 2.28989C10.5366 2.40601 10.6469 2.48642 10.7746 2.50488L11.8803 2.66541L11.08 3.44528Z" fill="#8B9EBA"/>
<path d="M18.9301 5.19958C18.8841 5.05814 18.7619 4.95514 18.6147 4.93378L17.4732 4.76791L16.9628 3.73337C16.897 3.60001 16.7613 3.51562 16.6126 3.51562C16.6126 3.51562 16.6126 3.51562 16.6124 3.51562C16.4638 3.51562 16.328 3.60001 16.2622 3.73337L15.7515 4.76791L14.6099 4.93378C14.4628 4.95514 14.3405 5.05814 14.2946 5.19958C14.2485 5.34103 14.2868 5.49622 14.3933 5.59998L15.2193 6.40549L15.0243 7.54227C14.9993 7.68875 15.0594 7.83676 15.1798 7.92419C15.3 8.01163 15.4595 8.02322 15.591 7.9541L16.6124 7.41745L17.6335 7.9541C17.7651 8.02322 17.9247 8.01163 18.0449 7.92419C18.1652 7.83691 18.2253 7.68875 18.2002 7.54227L18.0052 6.40549L18.8314 5.59998C18.9379 5.49622 18.976 5.34103 18.9301 5.19958ZM17.3129 5.98953C17.2208 6.07925 17.1788 6.2085 17.2006 6.33514L17.2965 6.89423L16.7943 6.6304C16.6805 6.57059 16.5445 6.57059 16.4308 6.6304L15.9282 6.89438L16.0242 6.33514C16.0459 6.2085 16.0039 6.07925 15.9119 5.98953L15.5054 5.59311L16.0671 5.51163C16.1943 5.49316 16.3043 5.41321 16.3613 5.298L16.6124 4.78912L16.8634 5.29785C16.9203 5.41321 17.0304 5.49316 17.1576 5.51163L17.7193 5.59311L17.3129 5.98953Z" fill="#8B9EBA"/>
<path d="M5.64883 5.19958C5.6029 5.05814 5.48067 4.95514 5.33343 4.93378L4.19192 4.76791L3.68151 3.73337C3.61574 3.60001 3.48009 3.51562 3.33132 3.51562C3.18255 3.51562 3.04674 3.60001 2.98098 3.73337L2.47027 4.76791L1.3286 4.93378C1.18151 4.95514 1.05929 5.05814 1.01336 5.19958C0.967276 5.34103 1.00558 5.49622 1.11208 5.59998L1.93804 6.40549L1.74319 7.54227C1.71801 7.68875 1.77828 7.83676 1.89852 7.92419C2.01876 8.01163 2.17821 8.02322 2.3099 7.9541L3.33117 7.41745L4.35229 7.9541C4.48473 8.02368 4.64403 8.01117 4.76366 7.92419C4.8839 7.83691 4.94417 7.68875 4.919 7.54227L4.72399 6.40549L5.5501 5.59998C5.65661 5.49622 5.69475 5.34103 5.64883 5.19958ZM4.03155 5.98953C3.93954 6.07925 3.89757 6.2085 3.91924 6.33514L4.01522 6.89423L3.5129 6.6304C3.39922 6.57059 3.26327 6.57059 3.14959 6.6304L2.64681 6.89438L2.74279 6.33514C2.76461 6.2085 2.72249 6.07925 2.63048 5.98953L2.22399 5.59311L2.78582 5.51163C2.91292 5.49316 3.02294 5.41321 3.07986 5.298L3.33102 4.78912L3.58202 5.29785C3.63894 5.41321 3.74895 5.49316 3.87621 5.51163L4.43789 5.59311L4.03155 5.98953Z" fill="#8B9EBA"/>
</svg>
