<svg width="20" height="20" viewBox="0 0 20 20" fill="none" xmlns="http://www.w3.org/2000/svg">
<path d="M13.5156 12.4609C13.2999 12.4609 13.125 12.6358 13.125 12.8516V15.5469C13.125 16.6238 12.2488 17.5 11.1719 17.5H6.95437C6.73871 17.5 6.56391 17.6747 6.56375 17.8904L6.5632 18.667L5.63086 17.7347C5.57051 17.5961 5.43238 17.5 5.27262 17.5H2.73438C1.65742 17.5 0.78125 16.6238 0.78125 15.5469V9.53125C0.78125 8.4543 1.65742 7.57812 2.73438 7.57812H6.67969C6.89539 7.57812 7.07031 7.40324 7.07031 7.1875C7.07031 6.97176 6.89539 6.79688 6.67969 6.79688H2.73438C1.22664 6.79688 0 8.02352 0 9.53125V15.5469C0 17.0546 1.22664 18.2812 2.73438 18.2812H5.07258L6.67691 19.8856C6.75164 19.9603 6.85152 20 6.9532 20C7.00348 20 7.05422 19.9903 7.10246 19.9703C7.24844 19.9099 7.34363 19.7676 7.34375 19.6096L7.34469 18.2812H11.1719C12.6796 18.2812 13.9062 17.0546 13.9062 15.5469V12.8516C13.9062 12.6358 13.7313 12.4609 13.5156 12.4609Z" fill="#8B9EBA"/>
<path d="M14.3225 0H13.3338C10.2032 0 7.65625 2.54695 7.65625 5.67758C7.65625 8.8082 10.2032 11.3551 13.3338 11.3551H14.3224C14.8111 11.3551 15.2947 11.293 15.7634 11.1704L17.2239 12.63C17.2986 12.7046 17.3984 12.7443 17.5001 12.7443C17.5504 12.7443 17.6012 12.7346 17.6495 12.7146C17.7955 12.6541 17.8906 12.5117 17.8906 12.3537V10.0937C18.5089 9.59297 19.0226 8.96043 19.383 8.25379C19.7925 7.45121 20 6.58445 20 5.67758C20 2.54695 17.453 0 14.3225 0ZM17.265 9.59121C17.167 9.665 17.1094 9.78055 17.1094 9.90324V11.4111L16.1535 10.4557C16.0791 10.3814 15.9793 10.3413 15.8773 10.3413C15.839 10.3413 15.8004 10.347 15.7626 10.3586C15.2977 10.5015 14.8131 10.5739 14.3225 10.5739H13.3338C10.6339 10.5739 8.4375 8.37742 8.4375 5.67758C8.4375 2.97773 10.634 0.78125 13.3338 0.78125H14.3225C17.0223 0.78125 19.2188 2.97773 19.2188 5.67758C19.2188 7.22957 18.5066 8.65605 17.265 9.59121Z" fill="#8B9EBA"/>
<path d="M15.5868 4.27423C15.5304 3.45646 14.8712 2.79724 14.0534 2.74087C13.5898 2.70904 13.1473 2.8654 12.8087 3.18154C12.4747 3.49329 12.2832 3.934 12.2832 4.39068C12.2832 4.60642 12.4581 4.7813 12.6738 4.7813C12.8895 4.7813 13.0645 4.60642 13.0645 4.39068C13.0645 4.14619 13.163 3.91958 13.3418 3.75267C13.5205 3.58591 13.754 3.50337 13.9997 3.52033C14.4305 3.55001 14.7777 3.89724 14.8074 4.32798C14.8374 4.76302 14.552 5.14747 14.1288 5.24216C13.7859 5.31888 13.5464 5.61685 13.5464 5.96673V6.90521C13.5464 7.12095 13.7213 7.29583 13.937 7.29583C14.1528 7.29583 14.3277 7.12095 14.3276 6.90521V5.99794C15.1147 5.80779 15.6428 5.08755 15.5868 4.27423Z" fill="#8B9EBA"/>
<path d="M14.2137 8.17427C14.141 8.10161 14.0402 8.05981 13.9375 8.05981C13.8348 8.05981 13.734 8.10161 13.6613 8.17427C13.5887 8.24692 13.5469 8.34771 13.5469 8.45044C13.5469 8.55356 13.5887 8.65435 13.6613 8.727C13.734 8.79966 13.8348 8.84106 13.9375 8.84106C14.0402 8.84106 14.141 8.79966 14.2137 8.727C14.2863 8.65396 14.3281 8.55356 14.3281 8.45044C14.3281 8.34771 14.2863 8.24692 14.2137 8.17427Z" fill="#8B9EBA"/>
<path d="M10.7422 12.1094H2.5C2.2843 12.1094 2.10938 12.2843 2.10938 12.5C2.10938 12.7157 2.2843 12.8906 2.5 12.8906H10.7422C10.9579 12.8906 11.1328 12.7157 11.1328 12.5C11.1328 12.2843 10.9579 12.1094 10.7422 12.1094Z" fill="#8B9EBA"/>
<path d="M9.20574 14.2969H2.5C2.2843 14.2969 2.10938 14.4718 2.10938 14.6875C2.10938 14.9032 2.2843 15.0781 2.5 15.0781H9.20574C9.42148 15.0781 9.59637 14.9032 9.59637 14.6875C9.59637 14.4718 9.42145 14.2969 9.20574 14.2969Z" fill="#8B9EBA"/>
<path d="M8.20312 9.92188H2.5C2.2843 9.92188 2.10938 10.0968 2.10938 10.3125C2.10938 10.5282 2.2843 10.7031 2.5 10.7031H8.20312C8.41887 10.7031 8.59375 10.5282 8.59375 10.3125C8.59375 10.0968 8.41883 9.92188 8.20312 9.92188Z" fill="#8B9EBA"/>
</svg>
