<svg width="20" height="20" viewBox="0 0 20 20" fill="none" xmlns="http://www.w3.org/2000/svg">
<path d="M14 8.13846C14.3496 7.91659 14.5827 7.527 14.5827 7.08325C14.5827 6.39388 14.0221 5.83325 13.3327 5.83325H13.2352L15.3564 2.29763C15.4337 2.16888 15.4358 2.00846 15.3616 1.87784C15.2881 1.74742 15.1496 1.66659 14.9993 1.66659C14.5002 1.66659 14.271 1.51367 13.9804 1.31992C13.6554 1.10304 13.2506 0.833252 12.4993 0.833252C11.7481 0.833252 11.3433 1.10304 11.0183 1.31992C10.7277 1.51367 10.4985 1.66659 9.99935 1.66659C9.5006 1.66659 9.27122 1.51367 8.98039 1.31992C8.65518 1.10304 8.25018 0.833252 7.49935 0.833252C6.74852 0.833252 6.34352 1.10304 6.01831 1.31992C5.72768 1.51367 5.49831 1.66659 4.99935 1.66659C4.84914 1.66659 4.7106 1.74742 4.63685 1.87804C4.56289 2.00867 4.56477 2.16888 4.64206 2.29784L6.76352 5.83325H6.66602C5.97664 5.83325 5.41602 6.39388 5.41602 7.08325C5.41602 7.527 5.64914 7.91659 5.99872 8.13846C4.51247 9.21679 1.66602 11.7108 1.66602 14.9999C1.66602 18.6716 5.87872 19.1666 9.99935 19.1666C14.12 19.1666 18.3327 18.6716 18.3327 14.9999C18.3327 11.7108 15.4862 9.21679 14 8.13846ZM5.68227 2.41179C6.02872 2.31429 6.27102 2.15284 6.48039 2.01325C6.77102 1.8195 7.00039 1.66659 7.49935 1.66659C7.9981 1.66659 8.22747 1.8195 8.51831 2.01325C8.84352 2.23013 9.24852 2.49992 9.99935 2.49992C10.7506 2.49992 11.1554 2.23013 11.4804 2.01325C11.771 1.8195 12.0002 1.66659 12.4993 1.66659C12.9985 1.66659 13.2277 1.8195 13.5183 2.01325C13.7277 2.15284 13.9698 2.31429 14.3164 2.41179L12.2635 5.83325H11.4908C11.6362 4.87325 12.2148 3.99075 12.2212 3.98096C12.3487 3.7895 12.2971 3.53075 12.1056 3.40325C11.9139 3.27534 11.6554 3.32742 11.5279 3.51888C11.4948 3.56846 10.796 4.63263 10.6521 5.83325H9.34706C9.20331 4.63263 8.50435 3.56846 8.47122 3.51888C8.34352 3.32742 8.08497 3.27534 7.89352 3.40325C7.70206 3.53075 7.65039 3.7895 7.77789 3.98096C7.78456 3.99096 8.36372 4.8695 8.50872 5.83325H7.7356L5.68227 2.41179ZM6.66602 6.66659H13.3327C13.5625 6.66659 13.7493 6.85346 13.7493 7.08325C13.7493 7.31304 13.5625 7.49992 13.3327 7.49992H6.66602C6.43622 7.49992 6.24935 7.31304 6.24935 7.08325C6.24935 6.85346 6.43622 6.66659 6.66602 6.66659ZM9.99935 18.3333C4.67227 18.3333 2.49935 17.3674 2.49935 14.9999C2.49935 11.4224 6.54143 8.74554 7.20018 8.33325H12.7985C13.4573 8.74554 17.4993 11.4224 17.4993 14.9999C17.4993 17.3674 15.3264 18.3333 9.99935 18.3333ZM11.666 14.1666C11.666 14.856 11.1054 15.4166 10.416 15.4166V16.0416C10.416 16.2716 10.2293 16.4583 9.99935 16.4583C9.76935 16.4583 9.58268 16.2716 9.58268 16.0416V15.4166H8.95768C8.72768 15.4166 8.54102 15.2299 8.54102 14.9999C8.54102 14.7699 8.72768 14.5833 8.95768 14.5833H10.416C10.6458 14.5833 10.8327 14.3964 10.8327 14.1666C10.8327 13.9368 10.6458 13.7499 10.416 13.7499H9.58268C8.89331 13.7499 8.33268 13.1893 8.33268 12.4999C8.33268 11.8105 8.89331 11.2499 9.58268 11.2499V10.6249C9.58268 10.3949 9.76935 10.2083 9.99935 10.2083C10.2293 10.2083 10.416 10.3949 10.416 10.6249V11.2499H11.041C11.271 11.2499 11.4577 11.4366 11.4577 11.6666C11.4577 11.8966 11.271 12.0833 11.041 12.0833H9.58268C9.35289 12.0833 9.16602 12.2701 9.16602 12.4999C9.16602 12.7297 9.35289 12.9166 9.58268 12.9166H10.416C11.1054 12.9166 11.666 13.4772 11.666 14.1666Z" fill="#8B9EBA"/>
</svg>
