<svg width="20" height="20" viewBox="0 0 20 20" fill="none" xmlns="http://www.w3.org/2000/svg">
<g clip-path="url(#clip0_2502_934)">
<path d="M18.2315 2.7207H15.8844C15.7647 2.5448 15.69 2.50125 15.1969 1.99906C14.6695 1.4718 13.8114 1.4718 13.2841 1.99906L12.687 2.59617C12.378 2.43379 12.0556 2.30004 11.7231 2.19641V1.35254C11.7231 0.606758 11.1164 0 10.3706 0H9.62945C8.88367 0 8.27691 0.606758 8.27691 1.35254V2.19645C7.94449 2.30008 7.62195 2.43387 7.31301 2.59625L6.7159 1.9991C6.18855 1.47176 5.33051 1.47176 4.80312 1.9991C4.3182 2.49293 4.23555 2.54453 4.11566 2.72074H1.76855C0.81707 2.72074 0.0429688 3.4948 0.0429688 4.44633V13.6037C0.0429688 14.5524 0.814336 15.3293 1.76852 15.3293H8.53695L8.02477 17.168H6.85082C6.1452 17.168 5.57113 17.7421 5.57113 18.4478V19.2188H4.13723C3.92148 19.2188 3.7466 19.3937 3.7466 19.6094C3.7466 19.8251 3.92148 20 4.13723 20H15.8629C16.0786 20 16.2535 19.8251 16.2535 19.6094C16.2535 19.3937 16.0786 19.2188 15.8629 19.2188H14.4289V18.4477C14.4289 17.7421 13.8549 17.168 13.1493 17.168H11.9753L11.4631 15.3292H18.2316C19.183 15.3292 19.9571 14.5552 19.9571 13.6036C19.9571 13.1179 19.9571 4.76852 19.9571 4.44629C19.9571 3.4948 19.183 2.7207 18.2315 2.7207ZM18.2315 3.50195C18.7522 3.50195 19.1759 3.92559 19.1759 4.44629V11.891H16.1128C16.0954 11.5623 15.9601 11.2434 15.721 11.0042L15.1239 10.4071C15.2863 10.0982 15.4201 9.7757 15.5237 9.4432C16.3773 9.44105 16.3866 9.44836 16.5057 9.43621C17.1869 9.36684 17.7202 8.78988 17.7202 8.09066V7.34953C17.7202 6.60371 17.1134 5.99699 16.3676 5.99699H15.5237C15.4201 5.66449 15.2863 5.34203 15.1239 5.03305L15.721 4.43598C15.98 4.17695 16.1123 3.83777 16.1175 3.50195H18.2315ZM4.83148 3.07562L5.35555 2.55152C5.57832 2.32879 5.94074 2.32879 6.16348 2.55152L6.96953 3.35762C7.0959 3.48387 7.29188 3.5084 7.44551 3.41707C7.85754 3.17191 8.30105 2.98797 8.76379 2.87031C8.93695 2.82633 9.0582 2.67043 9.0582 2.49176V1.35254C9.0582 1.03754 9.31449 0.78125 9.62949 0.78125H10.3706C10.6856 0.78125 10.9419 1.03754 10.9419 1.35254V2.49176C10.9419 2.67043 11.0632 2.82633 11.2363 2.87031C11.6991 2.98793 12.1426 3.17191 12.5546 3.41707C12.7081 3.50844 12.9041 3.48395 13.0306 3.35762L13.8366 2.55152C14.0593 2.32887 14.4218 2.32879 14.6446 2.55152C15.1715 3.09594 15.2793 3.12297 15.3263 3.37609C15.3608 3.56555 15.2991 3.75301 15.1686 3.88352L14.3626 4.68957C14.2362 4.81594 14.2117 5.01195 14.3031 5.16559C14.5177 5.52609 14.6853 5.9107 14.8027 6.31125C14.8194 6.36848 14.8352 6.42602 14.8499 6.48387C14.8939 6.65703 15.0498 6.77824 15.2284 6.77824H16.3677C16.6827 6.77824 16.9389 7.03453 16.9389 7.34953V8.09066C16.9389 8.40566 16.6827 8.66195 16.3677 8.66195H15.2284C15.0498 8.66195 14.8939 8.7832 14.8499 8.95637C14.7323 9.4191 14.5483 9.86262 14.3031 10.2746C14.2974 10.2843 14.2921 10.294 14.2873 10.3039C14.2152 10.4525 14.2441 10.6321 14.3626 10.7506C15.0791 11.5135 15.2936 11.5689 15.3318 11.891H4.66832C4.68305 11.7669 4.73879 11.6493 4.83145 11.5566L5.6375 10.7506C5.76387 10.6242 5.78836 10.4282 5.69699 10.2746C5.45176 9.8625 5.26781 9.41898 5.15027 8.95633C5.10629 8.78312 4.95035 8.66191 4.77168 8.66191H3.63246C3.31746 8.66191 3.06117 8.40562 3.06117 8.09062V7.34949C3.06117 7.03449 3.31746 6.7782 3.63246 6.7782H4.77172C4.95039 6.7782 5.10629 6.65695 5.15031 6.48379C5.26793 6.02102 5.45184 5.57754 5.69703 5.16555C5.78805 5.01258 5.76449 4.81648 5.63754 4.68953C4.8473 3.8898 4.82113 3.89035 4.75605 3.79004C4.61082 3.56668 4.63977 3.26727 4.83148 3.07562ZM1.76855 3.50195H3.88254C3.88785 3.84195 4.02332 4.18023 4.27906 4.43598L4.87617 5.03305C4.71379 5.34203 4.58 5.66457 4.47637 5.99699H3.63246C2.88668 5.99699 2.27992 6.60371 2.27992 7.34953V8.09066C2.27992 8.83723 2.88742 9.4432 3.63246 9.4432H4.47637C4.58 9.77563 4.71375 10.0982 4.87617 10.4071L4.27906 11.0042C4.03992 11.2434 3.90465 11.5623 3.88727 11.891H0.824219V4.44629C0.824219 3.92559 1.24785 3.50195 1.76855 3.50195ZM13.6477 18.4477V19.2188H6.35238V18.4477C6.35238 18.1729 6.57598 17.9493 6.85082 17.9493H13.1493C13.4241 17.9493 13.6477 18.1729 13.6477 18.4477ZM11.1643 17.168H8.83574L9.34793 15.3292H10.6521L11.1643 17.168ZM19.1759 13.6036C19.1759 14.1243 18.7522 14.548 18.2315 14.548C17.6485 14.548 2.3125 14.548 1.76852 14.548C1.24629 14.548 0.82418 14.1229 0.82418 13.6036V12.6723H19.1758V13.6036H19.1759Z" fill="#8B9EBA"/>
<circle cx="10" cy="7" r="2.65" stroke="#8B9EBA" stroke-width="0.7"/>
</g>
<defs>
<clipPath id="clip0_2502_934">
<rect width="20" height="20" fill="white"/>
</clipPath>
</defs>
</svg>
