<svg width="96" height="127" viewBox="0 0 96 127" fill="none" xmlns="http://www.w3.org/2000/svg">
	<path d="M65.3506 69.7399L65.4266 69.5789L65.35 69.7401C54.2096 93.2195 32.3694 115.812 9.19377 126.18C8.67508 126.412 8.06379 126.179 7.83217 125.657C7.59794 125.136 7.83341 124.526 8.35196 124.292C31.1565 114.092 52.6378 91.8262 63.5474 68.726L63.5495 68.727L63.5473 68.7255C62.6323 68.1263 61.7604 67.4175 60.9304 66.62C57.1612 62.9835 54.3268 57.4005 52.7016 51.5189C50.7485 44.4549 50.5537 36.9738 52.4442 31.9718C53.8171 28.3328 56.2716 25.9519 59.84 25.645C63.0501 25.3696 65.4626 26.4115 67.2226 28.3412C68.9825 30.2709 70.09 33.0884 70.69 36.3644C71.5252 40.9314 71.3705 46.3876 70.7872 51.2802C70.2039 56.1729 69.1919 60.502 68.3126 62.8149C67.6751 64.4905 66.9777 66.1696 66.2229 67.8495L66.2017 67.84L66.2231 67.85C68.7734 69.0452 71.6437 69.2914 74.7908 68.1628C80.0791 66.2705 83.6656 63.1383 85.93 59.2254C88.1943 55.3126 89.1366 50.6191 89.1365 45.6044C89.1353 37.8648 86.924 29.3647 83.7826 21.6708C80.6412 13.977 76.5696 7.08932 72.8478 2.57477C72.4853 2.1339 72.5486 1.48249 72.9891 1.11963C73.427 0.756935 74.0778 0.81785 74.4404 1.25872C78.2746 5.91026 82.4643 13.009 85.6956 20.9385C88.9269 28.8681 91.1998 37.6283 91.2005 45.6029C91.2007 51.0643 90.151 56.1604 87.662 60.4064C85.1729 64.6524 81.2445 68.0482 75.4872 70.1092C71.765 71.4414 68.3629 71.1612 65.3506 69.7399ZM64.424 66.8166L64.4243 66.8163L64.4253 66.8149L64.4244 66.8168C65.1302 65.2364 65.7837 63.6565 66.3827 62.0799C67.2247 59.8631 68.1938 55.7154 68.7524 51.028C69.3109 46.3405 69.4589 41.1133 68.6584 36.7375C68.1676 34.052 67.3225 31.6805 65.9424 30.0369C64.5623 28.3932 62.6471 27.4774 60.0159 27.703C57.2523 27.9416 55.4401 29.8851 54.3737 32.7016C53.2039 35.8012 52.9295 39.9217 53.402 44.2698C54.1193 50.8712 56.5667 57.995 60.3855 62.914C61.5945 64.473 62.9443 65.8069 64.4238 66.817L64.424 66.8166Z" fill="#070038" stroke="#070038" stroke-width="0.000760393" />
	<path d="M8.25541 124.523C16.2693 115.074 23.433 101.688 24.795 89.4338C24.8583 88.8686 25.3692 88.4598 25.9339 88.5231C26.5013 88.5863 26.9098 89.0976 26.8465 89.6628C25.4415 102.296 18.0948 116.118 9.82935 125.861C9.46089 126.296 8.80893 126.347 8.37494 125.978C7.94095 125.61 7.88694 124.957 8.25541 124.523Z" fill="#070038" stroke="#070038" stroke-width="0.000760393" />
	<path d="M42.2589 120.947C32.1649 118.958 18.5672 120.465 9.97468 126.071C9.4973 126.384 8.85785 126.249 8.54532 125.771C8.23537 125.293 8.36991 124.651 8.84745 124.341C17.8495 118.468 32.0845 116.837 42.659 118.92C43.2187 119.031 43.582 119.574 43.4714 120.134C43.3635 120.694 42.8186 121.058 42.2589 120.947Z" fill="#070038" stroke="#070038" stroke-width="0.000760393" />
</svg>
