<svg width="42" height="28" viewBox="0 0 42 28" fill="none" xmlns="http://www.w3.org/2000/svg">
<path d="M40.5046 4.42348C40.9165 4.64865 41.433 4.49727 41.6581 4.08536C41.8833 3.67345 41.7319 3.15699 41.32 2.93181L40.5046 4.42348ZM6.70664 25.8232C6.70664 26.2926 7.0872 26.6732 7.55664 26.6732C8.02608 26.6732 8.40664 26.2926 8.40664 25.8232H6.70664ZM41.32 2.93181C35.9878 0.0168877 27.3797 -1.11046 20.0646 1.91824C16.3864 3.4411 13.0322 6.01707 10.604 9.93915C8.17818 13.8573 6.70664 19.0696 6.70664 25.8232H8.40664C8.40664 19.3167 9.82298 14.4301 12.0494 10.834C14.2734 7.24181 17.3357 4.88803 20.7149 3.48893C27.5144 0.673714 35.5842 1.73367 40.5046 4.42348L41.32 2.93181Z" fill="#070038"/>
<path d="M2.15768 20.1958C1.82573 19.8639 1.28754 19.8639 0.955598 20.1958C0.623653 20.5278 0.623655 21.066 0.955602 21.3979L2.15768 20.1958ZM7.55669 26.7969L6.95565 27.3979C7.28759 27.7299 7.82578 27.7299 8.15773 27.3979L7.55669 26.7969ZM14.1577 21.3979C14.4896 21.066 14.4896 20.5278 14.1577 20.1958C13.8257 19.8639 13.2875 19.8639 12.9556 20.1958L14.1577 21.3979ZM0.955602 21.3979L6.95565 27.3979L8.15772 26.1958L2.15768 20.1958L0.955602 21.3979ZM8.15773 27.3979L14.1577 21.3979L12.9556 20.1958L6.95564 26.1958L8.15773 27.3979Z" fill="#070038"/>
</svg>
