<svg width="42" height="30" viewBox="0 0 42 30" fill="none" xmlns="http://www.w3.org/2000/svg">
<path d="M1.66739 25.2767C1.26382 25.0369 0.74226 25.1696 0.502445 25.5732C0.262626 25.9768 0.39537 26.4983 0.798931 26.7382L1.66739 25.2767ZM35.4389 1.93415C35.4389 1.4647 35.0583 1.08415 34.5889 1.08415C34.1194 1.08415 33.7389 1.4647 33.7389 1.93415L35.4389 1.93415ZM0.798931 26.7382C6.13981 29.912 14.7705 31.1423 22.1046 27.8414C29.5331 24.498 35.4389 16.6038 35.4389 1.93415L33.7389 1.93415C33.7389 16.0932 28.0931 23.2819 21.4069 26.2912C14.6263 29.3429 6.57914 28.1955 1.66739 25.2767L0.798931 26.7382Z" fill="#070038"/>
<path d="M39.9633 7.97342C40.2811 8.31891 40.8189 8.34134 41.1643 8.02351C41.5098 7.70569 41.5323 7.16796 41.2144 6.82247L39.9633 7.97342ZM34.5888 0.875673L35.2144 0.300198C35.0534 0.125234 34.8266 0.025672 34.5888 0.025673C34.3511 0.025674 34.1242 0.125237 33.9633 0.300203L34.5888 0.875673ZM27.9633 6.82248C27.6455 7.16797 27.6679 7.70569 28.0134 8.02352C28.3589 8.34134 28.8966 8.31891 29.2144 7.97342L27.9633 6.82248ZM41.2144 6.82247L35.2144 0.300198L33.9633 1.45115L39.9633 7.97342L41.2144 6.82247ZM33.9633 0.300203L27.9633 6.82248L29.2144 7.97342L35.2144 1.45114L33.9633 0.300203Z" fill="#070038"/>
</svg>
