<svg width="64" height="65" viewBox="0 0 64 65" fill="none" xmlns="http://www.w3.org/2000/svg">
<g filter="url(#filter0_d_524_2826)">
<rect x="8" y="0.713379" width="56" height="56" fill="#FF7262"/>
<path d="M36 14.7134C28.272 14.7134 22 20.9854 22 28.7134C22 36.4414 28.272 42.7134 36 42.7134C43.7 42.7134 50 36.4414 50 28.7134C50 20.9854 43.7 14.7134 36 14.7134ZM45.24 21.1534C46.92 23.1974 47.9 25.7734 47.956 28.6014C47.564 28.5174 43.616 27.7334 39.64 28.2094C39.556 28.0134 39.472 27.7894 39.388 27.5934C39.136 27.0054 38.884 26.4174 38.604 25.8574C42.972 24.0934 44.988 21.4894 45.24 21.1534ZM36 16.7854C39.024 16.7854 41.824 17.9334 43.924 19.7814C43.7 20.0894 41.908 22.4974 37.652 24.0934C35.692 20.4814 33.508 17.5414 33.2 17.0934C34.096 16.8974 35.02 16.7854 36 16.7854ZM30.904 17.9054C31.212 18.3254 33.34 21.2934 35.328 24.8214C29.728 26.3054 24.8 26.2774 24.268 26.2774C25.08 22.5534 27.572 19.4734 30.904 17.9054ZM24.044 28.7414C24.044 28.6294 24.044 28.4894 24.044 28.3774C24.548 28.4054 30.372 28.4614 36.336 26.6694C36.672 27.3414 37.008 28.0134 37.316 28.7134C37.176 28.7694 37.008 28.7974 36.84 28.8534C30.68 30.8414 27.404 36.2734 27.124 36.7214C25.192 34.5934 24.044 31.7934 24.044 28.7414ZM36 40.6694C33.228 40.6694 30.68 39.7174 28.664 38.1494C28.888 37.7014 31.296 33.0254 38.044 30.6734C38.072 30.6454 38.1 30.6454 38.128 30.6454C39.808 35.0134 40.508 38.6534 40.676 39.7174C39.248 40.3334 37.652 40.6694 36 40.6694ZM42.664 38.6254C42.552 37.8974 41.908 34.3974 40.34 30.1134C44.092 29.5254 47.368 30.5054 47.788 30.6174C47.256 33.9494 45.352 36.8334 42.664 38.6254Z" fill="white"/>
<rect x="9" y="1.71338" width="54" height="54" stroke="#070038" stroke-width="2"/>
</g>
<defs>
<filter id="filter0_d_524_2826" x="0" y="0.713379" width="64" height="64" filterUnits="userSpaceOnUse" color-interpolation-filters="sRGB">
<feFlood flood-opacity="0" result="BackgroundImageFix"/>
<feColorMatrix in="SourceAlpha" type="matrix" values="0 0 0 0 0 0 0 0 0 0 0 0 0 0 0 0 0 0 127 0" result="hardAlpha"/>
<feOffset dx="-8" dy="8"/>
<feComposite in2="hardAlpha" operator="out"/>
<feColorMatrix type="matrix" values="0 0 0 0 0.0352941 0 0 0 0 0.0705882 0 0 0 0 0.14902 0 0 0 1 0"/>
<feBlend mode="normal" in2="BackgroundImageFix" result="effect1_dropShadow_524_2826"/>
<feBlend mode="normal" in="SourceGraphic" in2="effect1_dropShadow_524_2826" result="shape"/>
</filter>
</defs>
</svg>
