<svg width="64" height="65" viewBox="0 0 64 65" fill="none" xmlns="http://www.w3.org/2000/svg">
<g filter="url(#filter0_d_524_2824)">
<rect x="8" y="0.592529" width="56" height="56" fill="#4E7CF4"/>
<path d="M30.0354 19.6326C30.8585 19.6326 31.6184 19.6959 32.3149 19.8859C33.0115 20.0125 33.5814 20.2658 34.0879 20.5824C34.5945 20.899 34.9744 21.3423 35.2277 21.9121C35.481 22.482 35.6077 23.1786 35.6077 23.9384C35.6077 24.8249 35.4177 25.5848 34.9744 26.1547C34.5945 26.7246 33.9613 27.2312 33.2014 27.6111C34.2779 27.9277 35.1011 28.4976 35.6077 29.2574C36.1142 30.0173 36.4308 30.9671 36.4308 32.0436C36.4308 32.9301 36.2409 33.69 35.9243 34.3232C35.6077 34.9564 35.1011 35.5263 34.5312 35.9062C33.9613 36.2861 33.2648 36.6027 32.5049 36.7927C31.745 36.9827 30.9852 37.1093 30.2253 37.1093H21.7402V19.6326H30.0354ZM29.5288 26.7246C30.2253 26.7246 30.7952 26.5346 31.2385 26.218C31.6817 25.9014 31.8717 25.3315 31.8717 24.635C31.8717 24.255 31.8084 23.8751 31.6817 23.6218C31.5551 23.3685 31.3651 23.1786 31.1118 22.9886C30.8585 22.862 30.6053 22.7353 30.2886 22.672C29.972 22.6087 29.6554 22.6087 29.2755 22.6087H25.6028V26.7246H29.5288ZM29.7188 34.1965C30.0987 34.1965 30.4786 34.1332 30.7952 34.0699C31.1118 34.0066 31.4284 33.8799 31.6817 33.69C31.935 33.5 32.125 33.31 32.3149 32.9934C32.4416 32.6768 32.5682 32.2969 32.5682 31.8536C32.5682 30.9671 32.3149 30.3339 31.8084 29.8907C31.3018 29.5107 30.6053 29.3208 29.7821 29.3208H25.6028V34.1965H29.7188ZM41.9398 34.1332C42.4464 34.6398 43.2062 34.8931 44.2194 34.8931C44.9159 34.8931 45.5491 34.7031 46.0557 34.3865C46.5623 34.0066 46.8789 33.6266 47.0055 33.2467H50.1083C49.6017 34.7664 48.8419 35.8429 47.8287 36.5394C46.8156 37.1726 45.6125 37.5526 44.1561 37.5526C43.1429 37.5526 42.2564 37.3626 41.4332 37.046C40.6101 36.7294 39.9768 36.2861 39.4069 35.6529C38.8371 35.083 38.3938 34.3865 38.1405 33.5633C37.8239 32.7401 37.6973 31.8536 37.6973 30.8405C37.6973 29.8907 37.8239 29.0042 38.1405 28.181C38.4571 27.3578 38.9004 26.6613 39.4703 26.028C40.0402 25.4582 40.7367 24.9516 41.4966 24.635C42.3197 24.3184 43.1429 24.1284 44.1561 24.1284C45.2325 24.1284 46.1824 24.3184 47.0055 24.7616C47.8287 25.2049 48.4619 25.7114 48.9685 26.4713C49.4751 27.1678 49.855 27.991 50.1083 28.8775C50.2349 29.764 50.2983 30.6505 50.2349 31.6637H41.0533C41.0533 32.6768 41.4332 33.6266 41.9398 34.1332ZM45.9291 27.4844C45.4858 27.0412 44.7893 26.7879 43.9661 26.7879C43.3962 26.7879 42.953 26.9145 42.573 27.1045C42.1931 27.2945 41.9398 27.5478 41.6865 27.801C41.4332 28.0543 41.3066 28.3709 41.2433 28.6876C41.18 29.0042 41.1166 29.2574 41.1166 29.5107H46.8156C46.6889 28.5609 46.3723 27.9277 45.9291 27.4844ZM40.3568 20.8357H47.4488V22.5454H40.3568V20.8357Z" fill="white"/>
<rect x="9" y="1.59253" width="54" height="54" stroke="#070038" stroke-width="2"/>
</g>
<defs>
<filter id="filter0_d_524_2824" x="0" y="0.592529" width="64" height="64" filterUnits="userSpaceOnUse" color-interpolation-filters="sRGB">
<feFlood flood-opacity="0" result="BackgroundImageFix"/>
<feColorMatrix in="SourceAlpha" type="matrix" values="0 0 0 0 0 0 0 0 0 0 0 0 0 0 0 0 0 0 127 0" result="hardAlpha"/>
<feOffset dx="-8" dy="8"/>
<feComposite in2="hardAlpha" operator="out"/>
<feColorMatrix type="matrix" values="0 0 0 0 0.0352941 0 0 0 0 0.0705882 0 0 0 0 0.14902 0 0 0 1 0"/>
<feBlend mode="normal" in2="BackgroundImageFix" result="effect1_dropShadow_524_2824"/>
<feBlend mode="normal" in="SourceGraphic" in2="effect1_dropShadow_524_2824" result="shape"/>
</filter>
</defs>
</svg>
