<svg width="201" height="199" viewBox="0 0 201 199" fill="none" xmlns="http://www.w3.org/2000/svg">
<path d="M70.8655 49.0794C70.3667 48.8173 70.1607 48.2139 70.4055 47.7316C70.6503 47.2493 71.2532 47.0708 71.752 47.3329L70.8655 49.0794ZM81.3465 157.162C80.7983 157.229 80.2805 156.841 80.19 156.297C80.0996 155.752 80.4707 155.256 81.0189 155.189L81.3465 157.162ZM71.752 47.3329C72.4508 47.7 73.6454 48.1202 75.3133 48.5841C76.961 49.0423 79.0026 49.5252 81.3524 50.0337C86.0528 51.0509 91.9291 52.1586 98.2531 53.3669C110.868 55.7771 125.269 58.5876 135.359 61.8454C140.364 63.4618 144.486 65.2407 146.765 67.2411C147.918 68.2525 148.744 69.4478 148.798 70.8219C148.853 72.2028 148.118 73.4596 146.854 74.5932C144.356 76.8316 139.256 79.076 131.022 81.4011C122.737 83.7406 111.127 86.2004 95.4546 88.7895L95.0431 86.8285C110.683 84.2449 122.212 81.7992 130.396 79.4881C138.632 77.1625 143.331 75.0112 145.468 73.0962C146.52 72.153 146.811 71.3938 146.788 70.8176C146.765 70.2346 146.409 69.5319 145.464 68.7027C143.549 67.022 139.815 65.3498 134.806 63.7324C124.866 60.5227 110.604 57.7354 97.9508 55.3179C91.6409 54.1124 85.7323 52.9987 81.0004 51.9747C78.634 51.4626 76.5476 50.9698 74.8434 50.4959C73.1595 50.0276 71.7783 49.559 70.8655 49.0794L71.752 47.3329ZM95.4546 88.7895C79.8275 91.3711 69.0727 94.2276 62.0466 97.2445C54.9661 100.285 51.9282 103.378 51.2347 106.264C50.554 109.097 52.0379 112.187 55.3033 115.569C58.5391 118.92 63.2947 122.313 68.5507 125.66C73.8159 129.013 79.4436 132.237 84.5 135.338C89.4968 138.402 93.9415 141.348 96.6057 144.055C97.932 145.403 98.9336 146.805 99.2518 148.234C99.5922 149.763 99.1172 151.159 97.8612 152.326C96.6573 153.444 94.7265 154.371 92.0578 155.155C89.3697 155.945 85.8392 156.615 81.3465 157.162L81.0189 155.189C85.454 154.649 88.8667 153.995 91.4115 153.248C93.9759 152.495 95.5677 151.672 96.4507 150.852C97.2815 150.08 97.4576 149.348 97.2874 148.583C97.0951 147.72 96.4246 146.663 95.1916 145.41C92.7374 142.916 88.5149 140.095 83.4909 137.015C78.5263 133.971 72.7792 130.673 67.5108 127.318C62.2331 123.956 57.296 120.452 53.8751 116.91C50.4837 113.397 48.3467 109.596 49.2759 105.73C50.1923 101.916 53.995 98.5017 61.1808 95.4162C68.4209 92.3073 79.358 89.4197 95.0431 86.8285L95.4546 88.7895Z" fill="#070038"/>
<path d="M87.2659 160.615C87.7198 160.95 87.8279 161.574 87.5074 162.009C87.1868 162.444 86.559 162.525 86.1052 162.19L87.2659 160.615ZM79.8657 156.368L79.2853 157.156C79.0653 156.993 78.9168 156.753 78.873 156.489C78.8292 156.225 78.8937 155.959 79.052 155.751L79.8657 156.368ZM83.9631 149.288C84.29 148.858 84.9192 148.786 85.3686 149.127C85.8179 149.468 85.9172 150.093 85.5904 150.523L83.9631 149.288ZM86.1052 162.19L79.2853 157.156L80.446 155.581L87.2659 160.615L86.1052 162.19ZM79.052 155.751L83.9631 149.288L85.5904 150.523L80.6793 156.986L79.052 155.751Z" fill="#070038"/>
</svg>
